# xmcd
#
# Track frame offsets: 
#        150
#        14964
#        25988
#        39591
#        49172
#        61613
#        72629
#        85388
#        98214
#        108233
#        121590
#        131485
#        140298
#        152905
#        168569
#        183485
#        200155
#        212864
#        222952
#
# Disc length: 3134 seconds
#
# Revision: 0
# Processed by: cddbd v1.5.2PL0 Copyright (c) Steve Scherf et al.
# Submitted via: ExactAudioCopyFreeDBPlugin 1.0
#
DISCID=1e0c3c13
DTITLE=James Brown - The Indispensable 1956-1961 CD3
DYEAR=1900
DGENRE=
TTITLE0=I Don't Mind
TTITLE1=If You Want Me
TTITLE2=Baby You're Wright
TTITLE3=Love Don't Love Nobody
TTITLE4=Come Over Here
TTITLE5=And I Do Just What I Want
TTITLE6=Just You And Me, Darling
TTITLE7=So Long
TTITLE8=Tell Me What'Cha Gonna Do
TTITLE9=The Bells
TTITLE10=Hold It
TTITLE11=Dancing Little Thing
TTITLE12=You Don't Have To Go
TTITLE13=Lost Someone
TTITLE14=Shout and Shimmy
TTITLE15=Night Train
TTITLE16=(i love you) Yes I Do
TTITLE17=Have Mercy Baby
TTITLE18=Just Won't Do Right
EXTD=
EXTT0=
EXTT1=
EXTT2=
EXTT3=
EXTT4=
EXTT5=
EXTT6=
EXTT7=
EXTT8=
EXTT9=
EXTT10=
EXTT11=
EXTT12=
EXTT13=
EXTT14=
EXTT15=
EXTT16=
EXTT17=
EXTT18=
PLAYORDER=
